<?xml version="1.0" standalone="no"?><svg xmlns="http://www.w3.org/2000/svg" width="500" height="500"><polygon points="5,5 103,5 103,103 5,103" fill="hsl(37, 100%, 50%)"></polygon><polygon points="5,103 103,103 103,201 5,201" fill="hsl(31, 100%, 50%)"></polygon><polygon points="5,201 103,201 103,299 5,299" fill="hsl(25, 100%, 50%)"></polygon><polygon points="5,299 103,299 103,397 5,397" fill="hsl(18, 100%, 50%)"></polygon><polygon points="5,397 103,397 103,495 5,495" fill="hsl(12, 100%, 50%)"></polygon><polygon points="103,5 201,5 201,103 103,103" fill="hsl(43, 100%, 50%)"></polygon><polygon points="103,103 201,103 201,201 103,201" fill="hsl(50, 100%, 50%)"></polygon><polygon points="103,201 201,201 201,299 103,299" fill="hsl(81, 100%, 50%)"></polygon><polygon points="103,299 201,299 201,397 103,397" fill="hsl(0, 100%, 50%)"></polygon><polygon points="103,397 201,397 201,495 103,495" fill="hsl(6, 100%, 50%)"></polygon><polygon points="201,5 299,5 299,103 201,103" fill="hsl(50, 100%, 50%)"></polygon><polygon points="201,103 299,103 299,201 201,201" fill="hsl(56, 100%, 50%)"></polygon><polygon points="201,201 299,201 299,299 201,299" fill="hsl(87, 100%, 50%)"></polygon><polygon points="201,299 299,299 299,397 201,397" fill="hsl(93, 100%, 50%)"></polygon><polygon points="201,397 299,397 299,495 201,495" fill="hsl(100, 100%, 50%)"></polygon><polygon points="299,5 397,5 397,103 299,103" fill="hsl(56, 100%, 50%)"></polygon><polygon points="299,103 397,103 397,201 299,201" fill="hsl(62, 100%, 50%)"></polygon><polygon points="299,201 397,201 397,299 299,299" fill="hsl(81, 100%, 50%)"></polygon><polygon points="299,299 397,299 397,397 299,397" fill="hsl(87, 100%, 50%)"></polygon><polygon points="299,397 397,397 397,495 299,495" fill="hsl(93, 100%, 50%)"></polygon><polygon points="397,5 495,5 495,103 397,103" fill="hsl(62, 100%, 50%)"></polygon><polygon points="397,103 495,103 495,201 397,201" fill="hsl(68, 100%, 50%)"></polygon><polygon points="397,201 495,201 495,299 397,299" fill="hsl(75, 100%, 50%)"></polygon><polygon points="397,299 495,299 495,397 397,397" fill="hsl(81, 100%, 50%)"></polygon><polygon points="397,397 495,397 495,495 397,495" fill="hsl(87, 100%, 50%)"></polygon><line x1="5" y1="5" x2="103" y2="5" stroke="black" stroke-width="10" stroke-linecap="round"></line><line x1="5" y1="5" x2="5" y2="103" stroke="black" stroke-width="10" stroke-linecap="round"></line><line x1="103" y1="103" x2="103" y2="201" stroke="black" stroke-width="10" stroke-linecap="round"></line><line x1="5" y1="103" x2="5" y2="201" stroke="black" stroke-width="10" stroke-linecap="round"></line><line x1="103" y1="201" x2="103" y2="299" stroke="black" stroke-width="10" stroke-linecap="round"></line><line x1="5" y1="201" x2="5" y2="299" stroke="black" stroke-width="10" stroke-linecap="round"></line><line x1="103" y1="299" x2="103" y2="397" stroke="black" stroke-width="10" stroke-linecap="round"></line><line x1="5" y1="299" x2="5" y2="397" stroke="black" stroke-width="10" stroke-linecap="round"></line><line x1="5" y1="495" x2="103" y2="495" stroke="black" stroke-width="10" stroke-linecap="round"></line><line x1="5" y1="397" x2="5" y2="495" stroke="black" stroke-width="10" stroke-linecap="round"></line><line x1="103" y1="5" x2="201" y2="5" stroke="black" stroke-width="10" stroke-linecap="round"></line><line x1="201" y1="5" x2="201" y2="103" stroke="black" stroke-width="10" stroke-linecap="round"></line><line x1="103" y1="201" x2="201" y2="201" stroke="black" stroke-width="10" stroke-linecap="round"></line><line x1="103" y1="103" x2="103" y2="201" stroke="black" stroke-width="10" stroke-linecap="round"></line><line x1="103" y1="201" x2="201" y2="201" stroke="black" stroke-width="10" stroke-linecap="round"></line><line x1="103" y1="299" x2="201" y2="299" stroke="black" stroke-width="10" stroke-linecap="round"></line><line x1="103" y1="201" x2="103" y2="299" stroke="black" stroke-width="10" stroke-linecap="round"></line><line x1="103" y1="299" x2="201" y2="299" stroke="black" stroke-width="10" stroke-linecap="round"></line><line x1="201" y1="299" x2="201" y2="397" stroke="black" stroke-width="10" stroke-linecap="round"></line><line x1="103" y1="299" x2="103" y2="397" stroke="black" stroke-width="10" stroke-linecap="round"></line><line x1="103" y1="495" x2="201" y2="495" stroke="black" stroke-width="10" stroke-linecap="round"></line><line x1="201" y1="397" x2="201" y2="495" stroke="black" stroke-width="10" stroke-linecap="round"></line><line x1="201" y1="103" x2="299" y2="103" stroke="black" stroke-width="10" stroke-linecap="round"></line><line x1="201" y1="5" x2="201" y2="103" stroke="black" stroke-width="10" stroke-linecap="round"></line><line x1="201" y1="103" x2="299" y2="103" stroke="black" stroke-width="10" stroke-linecap="round"></line><line x1="201" y1="201" x2="299" y2="201" stroke="black" stroke-width="10" stroke-linecap="round"></line><line x1="201" y1="201" x2="299" y2="201" stroke="black" stroke-width="10" stroke-linecap="round"></line><line x1="201" y1="299" x2="201" y2="397" stroke="black" stroke-width="10" stroke-linecap="round"></line><line x1="201" y1="397" x2="201" y2="495" stroke="black" stroke-width="10" stroke-linecap="round"></line><line x1="299" y1="5" x2="397" y2="5" stroke="black" stroke-width="10" stroke-linecap="round"></line><line x1="299" y1="103" x2="397" y2="103" stroke="black" stroke-width="10" stroke-linecap="round"></line><line x1="299" y1="103" x2="397" y2="103" stroke="black" stroke-width="10" stroke-linecap="round"></line><line x1="299" y1="201" x2="397" y2="201" stroke="black" stroke-width="10" stroke-linecap="round"></line><line x1="299" y1="201" x2="397" y2="201" stroke="black" stroke-width="10" stroke-linecap="round"></line><line x1="299" y1="299" x2="397" y2="299" stroke="black" stroke-width="10" stroke-linecap="round"></line><line x1="397" y1="201" x2="397" y2="299" stroke="black" stroke-width="10" stroke-linecap="round"></line><line x1="299" y1="299" x2="397" y2="299" stroke="black" stroke-width="10" stroke-linecap="round"></line><line x1="299" y1="397" x2="397" y2="397" stroke="black" stroke-width="10" stroke-linecap="round"></line><line x1="299" y1="397" x2="397" y2="397" stroke="black" stroke-width="10" stroke-linecap="round"></line><line x1="299" y1="495" x2="397" y2="495" stroke="black" stroke-width="10" stroke-linecap="round"></line><line x1="397" y1="5" x2="495" y2="5" stroke="black" stroke-width="10" stroke-linecap="round"></line><line x1="495" y1="5" x2="495" y2="103" stroke="black" stroke-width="10" stroke-linecap="round"></line><line x1="495" y1="103" x2="495" y2="201" stroke="black" stroke-width="10" stroke-linecap="round"></line><line x1="495" y1="201" x2="495" y2="299" stroke="black" stroke-width="10" stroke-linecap="round"></line><line x1="397" y1="201" x2="397" y2="299" stroke="black" stroke-width="10" stroke-linecap="round"></line><line x1="397" y1="397" x2="495" y2="397" stroke="black" stroke-width="10" stroke-linecap="round"></line><line x1="495" y1="299" x2="495" y2="397" stroke="black" stroke-width="10" stroke-linecap="round"></line><line x1="397" y1="397" x2="495" y2="397" stroke="black" stroke-width="10" stroke-linecap="round"></line><line x1="397" y1="495" x2="495" y2="495" stroke="black" stroke-width="10" stroke-linecap="round"></line><line x1="495" y1="397" x2="495" y2="495" stroke="black" stroke-width="10" stroke-linecap="round"></line><line x1="250" y1="936" x2="250" y2="838" stroke="#006BB7" stroke-width="10" stroke-linecap="round"></line><line x1="250" y1="838" x2="250" y2="740" stroke="#006BB7" stroke-width="10" stroke-linecap="round"></line><line x1="250" y1="740" x2="250" y2="642" stroke="#006BB7" stroke-width="10" stroke-linecap="round"></line><line x1="250" y1="642" x2="250" y2="544" stroke="#006BB7" stroke-width="10" stroke-linecap="round"></line><line x1="250" y1="544" x2="250" y2="446" stroke="#006BB7" stroke-width="10" stroke-linecap="round"></line><line x1="250" y1="446" x2="250" y2="348" stroke="#006BB7" stroke-width="10" stroke-linecap="round"></line><line x1="250" y1="348" x2="348" y2="348" stroke="#006BB7" stroke-width="10" stroke-linecap="round"></line><line x1="348" y1="348" x2="446" y2="348" stroke="#006BB7" stroke-width="10" stroke-linecap="round"></line><line x1="446" y1="348" x2="446" y2="250" stroke="#006BB7" stroke-width="10" stroke-linecap="round"></line><line x1="446" y1="250" x2="446" y2="152" stroke="#006BB7" stroke-width="10" stroke-linecap="round"></line><line x1="446" y1="152" x2="446" y2="54" stroke="#006BB7" stroke-width="10" stroke-linecap="round"></line><line x1="446" y1="54" x2="348" y2="54" stroke="#006BB7" stroke-width="10" stroke-linecap="round"></line><line x1="348" y1="54" x2="250" y2="54" stroke="#006BB7" stroke-width="10" stroke-linecap="round"></line><line x1="250" y1="54" x2="250" y2="-44" stroke="#006BB7" stroke-width="10" stroke-linecap="round"></line><line x1="250" y1="-44" x2="250" y2="-142" stroke="#006BB7" stroke-width="10" stroke-linecap="round"></line><line x1="250" y1="-142" x2="250" y2="-240" stroke="#006BB7" stroke-width="10" stroke-linecap="round"></line><line x1="250" y1="-240" x2="250" y2="-338" stroke="#006BB7" stroke-width="10" stroke-linecap="round"></line><line x1="250" y1="-338" x2="250" y2="-436" stroke="#006BB7" stroke-width="10" stroke-linecap="round"></line></svg>