<?xml version="1.0" standalone="no"?><svg xmlns="http://www.w3.org/2000/svg" width="500" height="500"><polygon points="3.936479108111085,29.766450021689124 3.936479108111085,81.42639184884518 48.675301088454525,107.25636276242321 93.41412306879796,81.42639184884518 93.41412306879796,29.766450021689124 48.675301088454525,3.936479108111085" fill="white"></polygon><polygon points="48.675301088454525,107.25636276242321 48.675301088454525,158.91630458957928 93.41412306879796,184.7462755031573 138.1529450491414,158.91630458957928 138.1529450491414,107.25636276242321 93.41412306879796,81.42639184884518" fill="white"></polygon><polygon points="3.936479108111085,184.7462755031573 3.936479108111085,236.40621733031335 48.675301088454525,262.2361882438914 93.41412306879796,236.40621733031335 93.41412306879796,184.7462755031573 48.675301088454525,158.91630458957928" fill="white"></polygon><polygon points="48.675301088454525,262.2361882438914 48.675301088454525,313.8961300710475 93.41412306879796,339.7261009846255 138.1529450491414,313.8961300710475 138.1529450491414,262.2361882438914 93.41412306879796,236.40621733031335" fill="white"></polygon><polygon points="3.936479108111085,339.7261009846255 3.936479108111085,391.3860428117815 48.675301088454525,417.2160137253596 93.41412306879796,391.3860428117815 93.41412306879796,339.7261009846255 48.675301088454525,313.8961300710475" fill="white"></polygon><polygon points="93.41412306879796,29.766450021689124 93.41412306879796,81.42639184884518 138.1529450491414,107.25636276242321 182.89176702948484,81.42639184884518 182.89176702948484,29.766450021689124 138.1529450491414,3.936479108111085" fill="white"></polygon><polygon points="138.1529450491414,107.25636276242321 138.1529450491414,158.91630458957928 182.89176702948484,184.7462755031573 227.63058900982827,158.91630458957928 227.63058900982827,107.25636276242321 182.89176702948484,81.42639184884518" fill="white"></polygon><polygon points="93.41412306879796,184.7462755031573 93.41412306879796,236.40621733031335 138.1529450491414,262.2361882438914 182.89176702948484,236.40621733031335 182.89176702948484,184.7462755031573 138.1529450491414,158.91630458957928" fill="white"></polygon><polygon points="138.1529450491414,262.2361882438914 138.1529450491414,313.8961300710475 182.89176702948484,339.7261009846255 227.63058900982827,313.8961300710475 227.63058900982827,262.2361882438914 182.89176702948484,236.40621733031335" fill="white"></polygon><polygon points="93.41412306879796,339.7261009846255 93.41412306879796,391.3860428117815 138.1529450491414,417.2160137253596 182.89176702948484,391.3860428117815 182.89176702948484,339.7261009846255 138.1529450491414,313.8961300710475" fill="white"></polygon><polygon points="182.89176702948484,29.766450021689124 182.89176702948484,81.42639184884518 227.63058900982827,107.25636276242321 272.36941099017173,81.42639184884518 272.36941099017173,29.766450021689124 227.63058900982827,3.936479108111085" fill="white"></polygon><polygon points="227.63058900982827,107.25636276242321 227.63058900982827,158.91630458957928 272.3694109901717,184.7462755031573 317.10823297051513,158.91630458957928 317.10823297051513,107.25636276242321 272.3694109901717,81.42639184884518" fill="white"></polygon><polygon points="182.89176702948484,184.7462755031573 182.89176702948484,236.40621733031335 227.63058900982827,262.2361882438914 272.36941099017173,236.40621733031335 272.36941099017173,184.7462755031573 227.63058900982827,158.91630458957928" fill="white"></polygon><polygon points="227.63058900982827,262.2361882438914 227.63058900982827,313.8961300710475 272.3694109901717,339.7261009846255 317.10823297051513,313.8961300710475 317.10823297051513,262.2361882438914 272.3694109901717,236.40621733031335" fill="white"></polygon><polygon points="182.89176702948484,339.7261009846255 182.89176702948484,391.3860428117815 227.63058900982827,417.2160137253596 272.36941099017173,391.3860428117815 272.36941099017173,339.7261009846255 227.63058900982827,313.8961300710475" fill="white"></polygon><polygon points="272.36941099017173,29.766450021689124 272.36941099017173,81.42639184884518 317.10823297051513,107.25636276242321 361.8470549508586,81.42639184884518 361.8470549508586,29.766450021689124 317.10823297051513,3.936479108111085" fill="white"></polygon><polygon points="317.10823297051513,107.25636276242321 317.10823297051513,158.91630458957928 361.8470549508586,184.7462755031573 406.58587693120205,158.91630458957928 406.58587693120205,107.25636276242321 361.8470549508586,81.42639184884518" fill="white"></polygon><polygon points="272.36941099017173,184.7462755031573 272.36941099017173,236.40621733031335 317.10823297051513,262.2361882438914 361.8470549508586,236.40621733031335 361.8470549508586,184.7462755031573 317.10823297051513,158.91630458957928" fill="white"></polygon><polygon points="317.10823297051513,262.2361882438914 317.10823297051513,313.8961300710475 361.8470549508586,339.7261009846255 406.58587693120205,313.8961300710475 406.58587693120205,262.2361882438914 361.8470549508586,236.40621733031335" fill="white"></polygon><polygon points="272.36941099017173,339.7261009846255 272.36941099017173,391.3860428117815 317.10823297051513,417.2160137253596 361.8470549508586,391.3860428117815 361.8470549508586,339.7261009846255 317.10823297051513,313.8961300710475" fill="white"></polygon><polygon points="361.8470549508586,29.766450021689124 361.8470549508586,81.42639184884518 406.585876931202,107.25636276242321 451.32469891154545,81.42639184884518 451.32469891154545,29.766450021689124 406.585876931202,3.936479108111085" fill="white"></polygon><polygon points="406.585876931202,107.25636276242321 406.585876931202,158.91630458957928 451.32469891154545,184.7462755031573 496.0635208918889,158.91630458957928 496.0635208918889,107.25636276242321 451.32469891154545,81.42639184884518" fill="white"></polygon><polygon points="361.8470549508586,184.7462755031573 361.8470549508586,236.40621733031335 406.585876931202,262.2361882438914 451.32469891154545,236.40621733031335 451.32469891154545,184.7462755031573 406.585876931202,158.91630458957928" fill="white"></polygon><polygon points="406.585876931202,262.2361882438914 406.585876931202,313.8961300710475 451.32469891154545,339.7261009846255 496.0635208918889,313.8961300710475 496.0635208918889,262.2361882438914 451.32469891154545,236.40621733031335" fill="white"></polygon><polygon points="361.8470549508586,339.7261009846255 361.8470549508586,391.3860428117815 406.585876931202,417.2160137253596 451.32469891154545,391.3860428117815 451.32469891154545,339.7261009846255 406.585876931202,313.8961300710475" fill="white"></polygon><line x1="3.936479108111085" y1="29.766450021689124" x2="3.936479108111085" y2="81.42639184884518" stroke="black" stroke-width="7.87295821622217" stroke-linecap="round"></line><line x1="93.41412306879796" y1="29.766450021689124" x2="48.675301088454525" y2="3.936479108111085" stroke="black" stroke-width="7.87295821622217" stroke-linecap="round"></line><line x1="3.936479108111085" y1="29.766450021689124" x2="48.675301088454525" y2="3.936479108111085" stroke="black" stroke-width="7.87295821622217" stroke-linecap="round"></line><line x1="3.936479108111085" y1="81.42639184884518" x2="48.675301088454525" y2="107.25636276242321" stroke="black" stroke-width="7.87295821622217" stroke-linecap="round"></line><line x1="138.1529450491414" y1="158.91630458957928" x2="138.1529450491414" y2="107.25636276242321" stroke="black" stroke-width="7.87295821622217" stroke-linecap="round"></line><line x1="48.675301088454525" y1="107.25636276242321" x2="48.675301088454525" y2="158.91630458957928" stroke="black" stroke-width="7.87295821622217" stroke-linecap="round"></line><line x1="138.1529450491414" y1="107.25636276242321" x2="93.41412306879796" y2="81.42639184884518" stroke="black" stroke-width="7.87295821622217" stroke-linecap="round"></line><line x1="93.41412306879796" y1="184.7462755031573" x2="138.1529450491414" y2="158.91630458957928" stroke="black" stroke-width="7.87295821622217" stroke-linecap="round"></line><line x1="93.41412306879796" y1="236.40621733031335" x2="93.41412306879796" y2="184.7462755031573" stroke="black" stroke-width="7.87295821622217" stroke-linecap="round"></line><line x1="3.936479108111085" y1="184.7462755031573" x2="48.675301088454525" y2="158.91630458957928" stroke="black" stroke-width="7.87295821622217" stroke-linecap="round"></line><line x1="3.936479108111085" y1="236.40621733031335" x2="48.675301088454525" y2="262.2361882438914" stroke="black" stroke-width="7.87295821622217" stroke-linecap="round"></line><line x1="48.675301088454525" y1="262.2361882438914" x2="48.675301088454525" y2="313.8961300710475" stroke="black" stroke-width="7.87295821622217" stroke-linecap="round"></line><line x1="138.1529450491414" y1="262.2361882438914" x2="93.41412306879796" y2="236.40621733031335" stroke="black" stroke-width="7.87295821622217" stroke-linecap="round"></line><line x1="93.41412306879796" y1="339.7261009846255" x2="138.1529450491414" y2="313.8961300710475" stroke="black" stroke-width="7.87295821622217" stroke-linecap="round"></line><line x1="3.936479108111085" y1="339.7261009846255" x2="3.936479108111085" y2="391.3860428117815" stroke="black" stroke-width="7.87295821622217" stroke-linecap="round"></line><line x1="3.936479108111085" y1="339.7261009846255" x2="48.675301088454525" y2="313.8961300710475" stroke="black" stroke-width="7.87295821622217" stroke-linecap="round"></line><line x1="48.675301088454525" y1="417.2160137253596" x2="93.41412306879796" y2="391.3860428117815" stroke="black" stroke-width="7.87295821622217" stroke-linecap="round"></line><line x1="3.936479108111085" y1="391.3860428117815" x2="48.675301088454525" y2="417.2160137253596" stroke="black" stroke-width="7.87295821622217" stroke-linecap="round"></line><line x1="182.89176702948484" y1="81.42639184884518" x2="182.89176702948484" y2="29.766450021689124" stroke="black" stroke-width="7.87295821622217" stroke-linecap="round"></line><line x1="182.89176702948484" y1="29.766450021689124" x2="138.1529450491414" y2="3.936479108111085" stroke="black" stroke-width="7.87295821622217" stroke-linecap="round"></line><line x1="93.41412306879796" y1="29.766450021689124" x2="138.1529450491414" y2="3.936479108111085" stroke="black" stroke-width="7.87295821622217" stroke-linecap="round"></line><line x1="138.1529450491414" y1="107.25636276242321" x2="182.89176702948484" y2="81.42639184884518" stroke="black" stroke-width="7.87295821622217" stroke-linecap="round"></line><line x1="93.41412306879796" y1="81.42639184884518" x2="138.1529450491414" y2="107.25636276242321" stroke="black" stroke-width="7.87295821622217" stroke-linecap="round"></line><line x1="227.63058900982827" y1="158.91630458957928" x2="227.63058900982827" y2="107.25636276242321" stroke="black" stroke-width="7.87295821622217" stroke-linecap="round"></line><line x1="138.1529450491414" y1="107.25636276242321" x2="138.1529450491414" y2="158.91630458957928" stroke="black" stroke-width="7.87295821622217" stroke-linecap="round"></line><line x1="138.1529450491414" y1="107.25636276242321" x2="182.89176702948484" y2="81.42639184884518" stroke="black" stroke-width="7.87295821622217" stroke-linecap="round"></line><line x1="182.89176702948484" y1="184.7462755031573" x2="227.63058900982827" y2="158.91630458957928" stroke="black" stroke-width="7.87295821622217" stroke-linecap="round"></line><line x1="93.41412306879796" y1="184.7462755031573" x2="93.41412306879796" y2="236.40621733031335" stroke="black" stroke-width="7.87295821622217" stroke-linecap="round"></line><line x1="93.41412306879796" y1="184.7462755031573" x2="138.1529450491414" y2="158.91630458957928" stroke="black" stroke-width="7.87295821622217" stroke-linecap="round"></line><line x1="138.1529450491414" y1="262.2361882438914" x2="182.89176702948484" y2="236.40621733031335" stroke="black" stroke-width="7.87295821622217" stroke-linecap="round"></line><line x1="93.41412306879796" y1="236.40621733031335" x2="138.1529450491414" y2="262.2361882438914" stroke="black" stroke-width="7.87295821622217" stroke-linecap="round"></line><line x1="227.63058900982827" y1="313.8961300710475" x2="227.63058900982827" y2="262.2361882438914" stroke="black" stroke-width="7.87295821622217" stroke-linecap="round"></line><line x1="227.63058900982827" y1="262.2361882438914" x2="182.89176702948484" y2="236.40621733031335" stroke="black" stroke-width="7.87295821622217" stroke-linecap="round"></line><line x1="138.1529450491414" y1="262.2361882438914" x2="182.89176702948484" y2="236.40621733031335" stroke="black" stroke-width="7.87295821622217" stroke-linecap="round"></line><line x1="138.1529450491414" y1="313.8961300710475" x2="182.89176702948484" y2="339.7261009846255" stroke="black" stroke-width="7.87295821622217" stroke-linecap="round"></line><line x1="182.89176702948484" y1="391.3860428117815" x2="182.89176702948484" y2="339.7261009846255" stroke="black" stroke-width="7.87295821622217" stroke-linecap="round"></line><line x1="182.89176702948484" y1="339.7261009846255" x2="138.1529450491414" y2="313.8961300710475" stroke="black" stroke-width="7.87295821622217" stroke-linecap="round"></line><line x1="93.41412306879796" y1="339.7261009846255" x2="138.1529450491414" y2="313.8961300710475" stroke="black" stroke-width="7.87295821622217" stroke-linecap="round"></line><line x1="138.1529450491414" y1="417.2160137253596" x2="182.89176702948484" y2="391.3860428117815" stroke="black" stroke-width="7.87295821622217" stroke-linecap="round"></line><line x1="93.41412306879796" y1="391.3860428117815" x2="138.1529450491414" y2="417.2160137253596" stroke="black" stroke-width="7.87295821622217" stroke-linecap="round"></line><line x1="272.36941099017173" y1="81.42639184884518" x2="272.36941099017173" y2="29.766450021689124" stroke="black" stroke-width="7.87295821622217" stroke-linecap="round"></line><line x1="182.89176702948484" y1="29.766450021689124" x2="182.89176702948484" y2="81.42639184884518" stroke="black" stroke-width="7.87295821622217" stroke-linecap="round"></line><line x1="272.36941099017173" y1="29.766450021689124" x2="227.63058900982827" y2="3.936479108111085" stroke="black" stroke-width="7.87295821622217" stroke-linecap="round"></line><line x1="182.89176702948484" y1="29.766450021689124" x2="227.63058900982827" y2="3.936479108111085" stroke="black" stroke-width="7.87295821622217" stroke-linecap="round"></line><line x1="227.63058900982827" y1="107.25636276242321" x2="227.63058900982827" y2="158.91630458957928" stroke="black" stroke-width="7.87295821622217" stroke-linecap="round"></line><line x1="317.10823297051513" y1="107.25636276242321" x2="272.3694109901717" y2="81.42639184884518" stroke="black" stroke-width="7.87295821622217" stroke-linecap="round"></line><line x1="272.3694109901717" y1="184.7462755031573" x2="317.10823297051513" y2="158.91630458957928" stroke="black" stroke-width="7.87295821622217" stroke-linecap="round"></line><line x1="227.63058900982827" y1="158.91630458957928" x2="272.3694109901717" y2="184.7462755031573" stroke="black" stroke-width="7.87295821622217" stroke-linecap="round"></line><line x1="272.36941099017173" y1="236.40621733031335" x2="272.36941099017173" y2="184.7462755031573" stroke="black" stroke-width="7.87295821622217" stroke-linecap="round"></line><line x1="272.36941099017173" y1="184.7462755031573" x2="227.63058900982827" y2="158.91630458957928" stroke="black" stroke-width="7.87295821622217" stroke-linecap="round"></line><line x1="182.89176702948484" y1="184.7462755031573" x2="227.63058900982827" y2="158.91630458957928" stroke="black" stroke-width="7.87295821622217" stroke-linecap="round"></line><line x1="182.89176702948484" y1="236.40621733031335" x2="227.63058900982827" y2="262.2361882438914" stroke="black" stroke-width="7.87295821622217" stroke-linecap="round"></line><line x1="227.63058900982827" y1="262.2361882438914" x2="227.63058900982827" y2="313.8961300710475" stroke="black" stroke-width="7.87295821622217" stroke-linecap="round"></line><line x1="317.10823297051513" y1="262.2361882438914" x2="272.3694109901717" y2="236.40621733031335" stroke="black" stroke-width="7.87295821622217" stroke-linecap="round"></line><line x1="272.3694109901717" y1="339.7261009846255" x2="317.10823297051513" y2="313.8961300710475" stroke="black" stroke-width="7.87295821622217" stroke-linecap="round"></line><line x1="227.63058900982827" y1="313.8961300710475" x2="272.3694109901717" y2="339.7261009846255" stroke="black" stroke-width="7.87295821622217" stroke-linecap="round"></line><line x1="182.89176702948484" y1="339.7261009846255" x2="182.89176702948484" y2="391.3860428117815" stroke="black" stroke-width="7.87295821622217" stroke-linecap="round"></line><line x1="272.36941099017173" y1="339.7261009846255" x2="227.63058900982827" y2="313.8961300710475" stroke="black" stroke-width="7.87295821622217" stroke-linecap="round"></line><line x1="227.63058900982827" y1="417.2160137253596" x2="272.36941099017173" y2="391.3860428117815" stroke="black" stroke-width="7.87295821622217" stroke-linecap="round"></line><line x1="182.89176702948484" y1="391.3860428117815" x2="227.63058900982827" y2="417.2160137253596" stroke="black" stroke-width="7.87295821622217" stroke-linecap="round"></line><line x1="272.36941099017173" y1="29.766450021689124" x2="272.36941099017173" y2="81.42639184884518" stroke="black" stroke-width="7.87295821622217" stroke-linecap="round"></line><line x1="361.8470549508586" y1="29.766450021689124" x2="317.10823297051513" y2="3.936479108111085" stroke="black" stroke-width="7.87295821622217" stroke-linecap="round"></line><line x1="272.36941099017173" y1="29.766450021689124" x2="317.10823297051513" y2="3.936479108111085" stroke="black" stroke-width="7.87295821622217" stroke-linecap="round"></line><line x1="317.10823297051513" y1="107.25636276242321" x2="361.8470549508586" y2="81.42639184884518" stroke="black" stroke-width="7.87295821622217" stroke-linecap="round"></line><line x1="272.36941099017173" y1="81.42639184884518" x2="317.10823297051513" y2="107.25636276242321" stroke="black" stroke-width="7.87295821622217" stroke-linecap="round"></line><line x1="406.58587693120205" y1="158.91630458957928" x2="406.58587693120205" y2="107.25636276242321" stroke="black" stroke-width="7.87295821622217" stroke-linecap="round"></line><line x1="317.10823297051513" y1="107.25636276242321" x2="361.8470549508586" y2="81.42639184884518" stroke="black" stroke-width="7.87295821622217" stroke-linecap="round"></line><line x1="361.8470549508586" y1="184.7462755031573" x2="406.58587693120205" y2="158.91630458957928" stroke="black" stroke-width="7.87295821622217" stroke-linecap="round"></line><line x1="317.10823297051513" y1="158.91630458957928" x2="361.8470549508586" y2="184.7462755031573" stroke="black" stroke-width="7.87295821622217" stroke-linecap="round"></line><line x1="272.36941099017173" y1="184.7462755031573" x2="272.36941099017173" y2="236.40621733031335" stroke="black" stroke-width="7.87295821622217" stroke-linecap="round"></line><line x1="361.8470549508586" y1="184.7462755031573" x2="317.10823297051513" y2="158.91630458957928" stroke="black" stroke-width="7.87295821622217" stroke-linecap="round"></line><line x1="272.36941099017173" y1="184.7462755031573" x2="317.10823297051513" y2="158.91630458957928" stroke="black" stroke-width="7.87295821622217" stroke-linecap="round"></line><line x1="317.10823297051513" y1="262.2361882438914" x2="361.8470549508586" y2="236.40621733031335" stroke="black" stroke-width="7.87295821622217" stroke-linecap="round"></line><line x1="272.36941099017173" y1="236.40621733031335" x2="317.10823297051513" y2="262.2361882438914" stroke="black" stroke-width="7.87295821622217" stroke-linecap="round"></line><line x1="406.58587693120205" y1="313.8961300710475" x2="406.58587693120205" y2="262.2361882438914" stroke="black" stroke-width="7.87295821622217" stroke-linecap="round"></line><line x1="406.58587693120205" y1="262.2361882438914" x2="361.8470549508586" y2="236.40621733031335" stroke="black" stroke-width="7.87295821622217" stroke-linecap="round"></line><line x1="317.10823297051513" y1="262.2361882438914" x2="361.8470549508586" y2="236.40621733031335" stroke="black" stroke-width="7.87295821622217" stroke-linecap="round"></line><line x1="361.8470549508586" y1="339.7261009846255" x2="406.58587693120205" y2="313.8961300710475" stroke="black" stroke-width="7.87295821622217" stroke-linecap="round"></line><line x1="317.10823297051513" y1="313.8961300710475" x2="361.8470549508586" y2="339.7261009846255" stroke="black" stroke-width="7.87295821622217" stroke-linecap="round"></line><line x1="361.8470549508586" y1="339.7261009846255" x2="317.10823297051513" y2="313.8961300710475" stroke="black" stroke-width="7.87295821622217" stroke-linecap="round"></line><line x1="272.36941099017173" y1="339.7261009846255" x2="317.10823297051513" y2="313.8961300710475" stroke="black" stroke-width="7.87295821622217" stroke-linecap="round"></line><line x1="317.10823297051513" y1="417.2160137253596" x2="361.8470549508586" y2="391.3860428117815" stroke="black" stroke-width="7.87295821622217" stroke-linecap="round"></line><line x1="272.36941099017173" y1="391.3860428117815" x2="317.10823297051513" y2="417.2160137253596" stroke="black" stroke-width="7.87295821622217" stroke-linecap="round"></line><line x1="451.32469891154545" y1="81.42639184884518" x2="451.32469891154545" y2="29.766450021689124" stroke="black" stroke-width="7.87295821622217" stroke-linecap="round"></line><line x1="451.32469891154545" y1="29.766450021689124" x2="406.585876931202" y2="3.936479108111085" stroke="black" stroke-width="7.87295821622217" stroke-linecap="round"></line><line x1="361.8470549508586" y1="29.766450021689124" x2="406.585876931202" y2="3.936479108111085" stroke="black" stroke-width="7.87295821622217" stroke-linecap="round"></line><line x1="496.0635208918889" y1="158.91630458957928" x2="496.0635208918889" y2="107.25636276242321" stroke="black" stroke-width="7.87295821622217" stroke-linecap="round"></line><line x1="406.585876931202" y1="107.25636276242321" x2="406.585876931202" y2="158.91630458957928" stroke="black" stroke-width="7.87295821622217" stroke-linecap="round"></line><line x1="496.0635208918889" y1="107.25636276242321" x2="451.32469891154545" y2="81.42639184884518" stroke="black" stroke-width="7.87295821622217" stroke-linecap="round"></line><line x1="451.32469891154545" y1="184.7462755031573" x2="496.0635208918889" y2="158.91630458957928" stroke="black" stroke-width="7.87295821622217" stroke-linecap="round"></line><line x1="361.8470549508586" y1="184.7462755031573" x2="406.585876931202" y2="158.91630458957928" stroke="black" stroke-width="7.87295821622217" stroke-linecap="round"></line><line x1="361.8470549508586" y1="236.40621733031335" x2="406.585876931202" y2="262.2361882438914" stroke="black" stroke-width="7.87295821622217" stroke-linecap="round"></line><line x1="496.0635208918889" y1="313.8961300710475" x2="496.0635208918889" y2="262.2361882438914" stroke="black" stroke-width="7.87295821622217" stroke-linecap="round"></line><line x1="406.585876931202" y1="262.2361882438914" x2="406.585876931202" y2="313.8961300710475" stroke="black" stroke-width="7.87295821622217" stroke-linecap="round"></line><line x1="496.0635208918889" y1="262.2361882438914" x2="451.32469891154545" y2="236.40621733031335" stroke="black" stroke-width="7.87295821622217" stroke-linecap="round"></line><line x1="451.32469891154545" y1="339.7261009846255" x2="496.0635208918889" y2="313.8961300710475" stroke="black" stroke-width="7.87295821622217" stroke-linecap="round"></line><line x1="451.32469891154545" y1="391.3860428117815" x2="451.32469891154545" y2="339.7261009846255" stroke="black" stroke-width="7.87295821622217" stroke-linecap="round"></line><line x1="361.8470549508586" y1="339.7261009846255" x2="406.585876931202" y2="313.8961300710475" stroke="black" stroke-width="7.87295821622217" stroke-linecap="round"></line><line x1="406.585876931202" y1="417.2160137253596" x2="451.32469891154545" y2="391.3860428117815" stroke="black" stroke-width="7.87295821622217" stroke-linecap="round"></line><line x1="361.8470549508586" y1="391.3860428117815" x2="406.585876931202" y2="417.2160137253596" stroke="black" stroke-width="7.87295821622217" stroke-linecap="round"></line><line x1="48.675301088454525" y1="210.57624641673533" x2="3.936479108111085" y2="210.57624641673533" stroke="#006BB7" stroke-width="7.87295821622217" stroke-linecap="round"></line><line x1="406.585876931202" y1="210.57624641673533" x2="451.32469891154545" y2="210.57624641673533" stroke="#006BB7" stroke-width="7.87295821622217" stroke-linecap="round"></line><line x1="48.675301088454525" y1="210.57624641673533" x2="93.41412306879796" y2="288.06615915746943" stroke="#006BB7" stroke-width="7.87295821622217" stroke-linecap="round"></line><line x1="93.41412306879796" y1="288.06615915746943" x2="182.89176702948484" y2="288.06615915746943" stroke="#006BB7" stroke-width="7.87295821622217" stroke-linecap="round"></line><line x1="182.89176702948484" y1="288.06615915746943" x2="227.63058900982827" y2="365.5560718982035" stroke="#006BB7" stroke-width="7.87295821622217" stroke-linecap="round"></line><line x1="227.63058900982827" y1="365.5560718982035" x2="317.10823297051513" y2="365.5560718982035" stroke="#006BB7" stroke-width="7.87295821622217" stroke-linecap="round"></line><line x1="317.10823297051513" y1="365.5560718982035" x2="406.585876931202" y2="365.5560718982035" stroke="#006BB7" stroke-width="7.87295821622217" stroke-linecap="round"></line><line x1="406.585876931202" y1="365.5560718982035" x2="451.32469891154545" y2="288.06615915746943" stroke="#006BB7" stroke-width="7.87295821622217" stroke-linecap="round"></line><line x1="451.32469891154545" y1="288.06615915746943" x2="406.585876931202" y2="210.57624641673533" stroke="#006BB7" stroke-width="7.87295821622217" stroke-linecap="round"></line></svg>